<svg width="16" height="16" viewBox="0 0 16 16" fill="none" xmlns="http://www.w3.org/2000/svg">
<path d="M5.8125 11.8281V12.5624C5.81253 12.8498 5.75595 13.1343 5.64597 13.3998C5.536 13.6653 5.37479 13.9065 5.17156 14.1097L4.71875 14.5625H11.2813L10.8284 14.1097C10.6252 13.9065 10.464 13.6653 10.354 13.3998C10.2441 13.1343 10.1875 12.8498 10.1875 12.5624V11.8281M14.5625 3.07813V10.1875C14.5625 10.6226 14.3896 11.0399 14.082 11.3476C13.7743 11.6553 13.357 11.8281 12.9219 11.8281H3.07813C2.643 11.8281 2.2257 11.6553 1.91803 11.3476C1.61035 11.0399 1.4375 10.6226 1.4375 10.1875V3.07813M14.5625 3.07813C14.5625 2.643 14.3896 2.2257 14.082 1.91803C13.7743 1.61035 13.357 1.4375 12.9219 1.4375H3.07813C2.643 1.4375 2.2257 1.61035 1.91803 1.91803C1.61035 2.2257 1.4375 2.643 1.4375 3.07813M14.5625 3.07813V8C14.5625 8.43512 14.3896 8.85242 14.082 9.1601C13.7743 9.46777 13.357 9.64063 12.9219 9.64063H3.07813C2.643 9.64063 2.2257 9.46777 1.91803 9.1601C1.61035 8.85242 1.4375 8.43512 1.4375 8V3.07813" stroke="currentColor" stroke-linecap="round" stroke-linejoin="round"/>
</svg>
