<svg width="9" height="12" viewBox="0 0 9 12" fill="none" xmlns="http://www.w3.org/2000/svg">
<g opacity="0.6">
<path d="M2.32405 3.18082C2.22671 3.18082 2.13336 3.14215 2.06453 3.07332C1.9957 3.00449 1.95703 2.91114 1.95703 2.8138C1.95703 2.71646 1.9957 2.62311 2.06453 2.55428C2.13336 2.48545 2.22671 2.44678 2.32405 2.44678C2.42139 2.44678 2.51475 2.48545 2.58358 2.55428C2.65241 2.62311 2.69107 2.71646 2.69107 2.8138C2.69107 2.91114 2.65241 3.00449 2.58358 3.07332C2.51475 3.14215 2.42139 3.18082 2.32405 3.18082ZM2.32405 6.11699C2.22671 6.11699 2.13336 6.07832 2.06453 6.00949C1.9957 5.94066 1.95703 5.84731 1.95703 5.74997C1.95703 5.65263 1.9957 5.55928 2.06453 5.49045C2.13336 5.42162 2.22671 5.38295 2.32405 5.38295C2.42139 5.38295 2.51475 5.42162 2.58358 5.49045C2.65241 5.55928 2.69107 5.65263 2.69107 5.74997C2.69107 5.84731 2.65241 5.94066 2.58358 6.00949C2.51475 6.07832 2.42139 6.11699 2.32405 6.11699ZM2.32405 9.05316C2.22671 9.05316 2.13336 9.01449 2.06453 8.94566C1.9957 8.87683 1.95703 8.78348 1.95703 8.68614C1.95703 8.5888 1.9957 8.49545 2.06453 8.42662C2.13336 8.35779 2.22671 8.31912 2.32405 8.31912C2.42139 8.31912 2.51475 8.35779 2.58358 8.42662C2.65241 8.49545 2.69107 8.5888 2.69107 8.68614C2.69107 8.78348 2.65241 8.87683 2.58358 8.94566C2.51475 9.01449 2.42139 9.05316 2.32405 9.05316Z" stroke="#212939" stroke-width="0.734043" stroke-linecap="round" stroke-linejoin="round"/>
<path d="M5.99495 3.18082C5.89761 3.18082 5.80426 3.14215 5.73543 3.07332C5.6666 3.00449 5.62793 2.91114 5.62793 2.8138C5.62793 2.71646 5.6666 2.62311 5.73543 2.55428C5.80426 2.48545 5.89761 2.44678 5.99495 2.44678C6.09229 2.44678 6.18564 2.48545 6.25447 2.55428C6.3233 2.62311 6.36197 2.71646 6.36197 2.8138C6.36197 2.91114 6.3233 3.00449 6.25447 3.07332C6.18564 3.14215 6.09229 3.18082 5.99495 3.18082ZM5.99495 6.11699C5.89761 6.11699 5.80426 6.07832 5.73543 6.00949C5.6666 5.94066 5.62793 5.84731 5.62793 5.74997C5.62793 5.65263 5.6666 5.55928 5.73543 5.49045C5.80426 5.42162 5.89761 5.38295 5.99495 5.38295C6.09229 5.38295 6.18564 5.42162 6.25447 5.49045C6.3233 5.55928 6.36197 5.65263 6.36197 5.74997C6.36197 5.84731 6.3233 5.94066 6.25447 6.00949C6.18564 6.07832 6.09229 6.11699 5.99495 6.11699ZM5.99495 9.05316C5.89761 9.05316 5.80426 9.01449 5.73543 8.94566C5.6666 8.87683 5.62793 8.78348 5.62793 8.68614C5.62793 8.5888 5.6666 8.49545 5.73543 8.42662C5.80426 8.35779 5.89761 8.31912 5.99495 8.31912C6.09229 8.31912 6.18564 8.35779 6.25447 8.42662C6.3233 8.49545 6.36197 8.5888 6.36197 8.68614C6.36197 8.78348 6.3233 8.87683 6.25447 8.94566C6.18564 9.01449 6.09229 9.05316 5.99495 9.05316Z" stroke="#212939" stroke-width="0.734043" stroke-linecap="round" stroke-linejoin="round"/>
</g>
</svg>
