<svg width="10" height="18" viewBox="0 0 10 18" fill="none" xmlns="http://www.w3.org/2000/svg">
<path d="M3.90625 1.34375H2.26563C1.8305 1.34375 1.4132 1.5166 1.10553 1.82428C0.797851 2.13195 0.625 2.54925 0.625 2.98438V15.0156C0.625 15.4507 0.797851 15.868 1.10553 16.1757C1.4132 16.4834 1.8305 16.6563 2.26563 16.6563H7.73438C8.1695 16.6563 8.5868 16.4834 8.89447 16.1757C9.20215 15.868 9.375 15.4507 9.375 15.0156V2.98438C9.375 2.54925 9.20215 2.13195 8.89447 1.82428C8.5868 1.5166 8.1695 1.34375 7.73438 1.34375H6.09375M3.90625 1.34375V2.4375H6.09375V1.34375M3.90625 1.34375H6.09375M3.90625 15.0156H6.09375" stroke="currentColor" stroke-linecap="round" stroke-linejoin="round"/>
</svg>
