<svg width="13" height="13" viewBox="0 0 13 13" fill="none" xmlns="http://www.w3.org/2000/svg">
<path d="M7.05762 1.05762C7.05762 0.858705 6.9786 0.667939 6.83795 0.527287C6.69729 0.386635 6.50653 0.307617 6.30762 0.307617C6.10871 0.307617 5.91794 0.386635 5.77729 0.527287C5.63664 0.667939 5.55762 0.858705 5.55762 1.05762V5.55762H1.05762C0.858705 5.55762 0.667939 5.63664 0.527287 5.77729C0.386635 5.91794 0.307617 6.10871 0.307617 6.30762C0.307617 6.50653 0.386635 6.69729 0.527287 6.83795C0.667939 6.9786 0.858705 7.05762 1.05762 7.05762H5.55762V11.5576C5.55762 11.7565 5.63664 11.9473 5.77729 12.0879C5.91794 12.2286 6.10871 12.3076 6.30762 12.3076C6.50653 12.3076 6.69729 12.2286 6.83795 12.0879C6.9786 11.9473 7.05762 11.7565 7.05762 11.5576V7.05762H11.5576C11.7565 7.05762 11.9473 6.9786 12.0879 6.83795C12.2286 6.69729 12.3076 6.50653 12.3076 6.30762C12.3076 6.10871 12.2286 5.91794 12.0879 5.77729C11.9473 5.63664 11.7565 5.55762 11.5576 5.55762H7.05762V1.05762Z" fill="#DAE7FF"/>
</svg>
