<svg width="14" height="15" viewBox="0 0 14 15" fill="none" xmlns="http://www.w3.org/2000/svg">
<path fill-rule="evenodd" clip-rule="evenodd" d="M2.67562 0.509521C2.37986 0.509521 2.08905 0.584909 1.83063 0.728469C1.56749 0.862608 1.34538 1.06537 1.18786 1.3154C1.02807 1.56903 0.940861 1.86161 0.935696 2.16133L0.935621 2.16994V12.83L0.935696 12.8386C0.940861 13.1383 1.02807 13.4309 1.18786 13.6845C1.34538 13.9346 1.56749 14.1373 1.83063 14.2715C2.08905 14.415 2.37986 14.4904 2.67562 14.4904C2.97557 14.4904 3.27043 14.4129 3.53158 14.2653C3.53733 14.2621 3.54301 14.2587 3.54862 14.2552L12.1784 8.91771C12.4401 8.78582 12.661 8.58489 12.8172 8.33641C12.9783 8.07982 13.0639 7.78296 13.0639 7.47994C13.0639 7.17693 12.9783 6.88006 12.8172 6.62348C12.6609 6.37474 12.4396 6.17364 12.1776 6.04176L3.5472 0.743821C3.54205 0.740661 3.53684 0.737595 3.53158 0.734622C3.27043 0.587064 2.97557 0.509521 2.67562 0.509521Z" fill="#373F4D"/>
</svg>
