<svg width="11" height="11" viewBox="0 0 11 11" fill="none" xmlns="http://www.w3.org/2000/svg">
<path d="M9.75721 3.17777L9.4347 8.66416C9.41732 8.95986 9.28757 9.23775 9.07202 9.44093C8.85646 9.64411 8.5714 9.75721 8.27519 9.7571H2.72481C2.4286 9.75721 2.14354 9.64411 1.92798 9.44093C1.71243 9.23775 1.58268 8.95986 1.5653 8.66416L1.24279 3.17777M4.46795 5.11287H6.53205M1.04928 3.17777H9.95072C10.2712 3.17777 10.5313 2.9177 10.5313 2.59724V1.8232C10.5313 1.50275 10.2712 1.24268 9.95072 1.24268H1.04928C0.728827 1.24268 0.46875 1.50275 0.46875 1.8232V2.59724C0.46875 2.9177 0.728827 3.17777 1.04928 3.17777Z" stroke="#C9DCFF" stroke-width="0.884615" stroke-linecap="round" stroke-linejoin="round"/>
</svg>
